File size                        : 702 MiB
Duration                         : 1h 26mn
Overall bit rate                 : 1 135 Kbps

Video
ID                               : 0
Format                           : MPEG-4 Visual
Format profile                   : Advanced Simple@L5
Format settings, BVOP            : 2
Format settings, QPel            : No
Format settings, GMC             : No warppoints
Format settings, Matrix          : Default (H.263)
Codec ID                         : XVID
Codec ID/Hint                    : XviD
Duration                         : 1h 26mn
Bit rate                         : 1 001 Kbps
Width                            : 624 pixels
Height                           : 336 pixels
Display aspect ratio             : 1.857
Frame rate                       : 23.976 fps
Color space                      : YUV
Chroma subsampling               : 4:2:0
Bit depth                        : 8 bits
Scan type                        : Progressive
Compression mode                 : Lossy
Bits/(Pixel*Frame)               : 0.199
Stream size                      : 619 MiB (88%)
Writing library                  : XviD 1.2.1 (UTC 2008-12-04)

Audio
ID                               : 1
Format                           : MPEG Audio
Format version                   : Version 1
Format profile                   : Layer 3
Mode                             : Joint stereo
Codec ID                         : 55
Codec ID/Hint                    : MP3
Duration                         : 1h 26mn
Bit rate mode                    : Constant
Bit rate                         : 128 Kbps
Channel(s)                       : 2 channels
Sampling rate                    : 48.0 KHz
Compression mode                 : Lossy
Stream size                      : 79.1 MiB (11%)
Alignment                        : Aligned on interleaves
Interleave, duration             : 167 ms (4.00 video frames)
Interleave, preload duration     : 216 ms
Title                            : A.Haunted.House.2013.DVDRiP.AC3-5.1.XviD-AXED.avi_track_1_
Writing library                  : LAME3.99r
Encoding settings                : -m j -V 4 -q 2 -lowpass 17 -b 128

Screens:
 
http://i.imgur.com/vBNFadN.png 
http://i.imgur.com/FvNhP0A.png 
http://i.imgur.com/hvdhDoq.png 
http://i.imgur.com/a36fUqP.png 
http://i.imgur.com/rdm5l63.png